Coordinates
version=1
nRows=13
nColumns=40
inDegrees=yes

Units are S.I. units (second, meters, Newtons, ...)
Angles are in degrees.

endheader
time	pelvis_tilt	pelvis_list	pelvis_rotation	pelvis_tx	pelvis_ty	pelvis_tz	hip_flexion_r	hip_adduction_r	hip_rotation_r	knee_angle_r	knee_angle_r_beta	ankle_angle_r	subtalar_angle_r	mtp_angle_r	hip_flexion_l	hip_adduction_l	hip_rotation_l	knee_angle_l	knee_angle_l_beta	ankle_angle_l	subtalar_angle_l	mtp_angle_l	lumbar_extension	lumbar_bending	lumbar_rotation	arm_flex_r	arm_add_r	arm_rot_r	elbow_flex_r	pro_sup_r	wrist_flex_r	wrist_dev_r	arm_flex_l	arm_add_l	arm_rot_l	elbow_flex_l	pro_sup_l	wrist_flex_l	wrist_dev_l
     46.80500000	     -7.12711899	     -4.03446109	     -1.48239335	      1.03076708	      0.92327935	      0.48304127	      2.39053550	     -1.44597293	    -17.00140816	     21.39700621	     21.39700621	     17.69544415	      9.42765202	     -3.73046117	     27.56391474	     -5.29694708	     -2.20299624	     24.92777849	     24.92777849	      7.97042974	    -12.90489529	      6.92168271	    -10.77728312	      8.22658769	      3.86194136	      7.41754888	    -19.53532140	      4.31506002	     73.78086397	     45.10950685	      0.00000000	      0.00000000	    -10.28905490	    -10.44914968	    -10.47645588	     56.57850536	     46.63439453	      0.00000000	      0.00000000
     46.81714286	     -7.20468469	     -3.93784751	     -1.53177381	      1.03120744	      0.92379294	      0.48038984	      3.25046496	     -2.12113708	    -16.45723326	     23.73116277	     23.73116277	     17.15494279	      8.39502423	     -4.83593091	     27.04885327	     -5.03071834	     -2.34108853	     24.88273927	     24.88273927	      8.48468483	    -12.84518979	      6.81485318	    -10.67179961	      8.11925176	      3.92939742	      6.17447997	    -19.75479502	      3.48737376	     71.83659501	     45.19902266	      0.00000000	      0.00000000	    -10.07621902	    -10.48967247	    -10.07423601	     57.26965840	     46.61643613	      0.00000000	      0.00000000
     46.82928571	     -7.17650942	     -3.95253224	     -1.52890721	      1.03164172	      0.92442389	      0.47795698	      4.02991283	     -2.56230862	    -15.67039052	     25.94933099	     25.94933099	     15.47315368	      6.51214885	     -8.55055552	     26.43427122	     -4.86580257	     -2.37930037	     24.84984384	     24.84984384	      9.01505469	    -12.80936697	      6.79440268	    -10.67422470	      8.05066137	      3.84779793	      5.43555896	    -18.96943944	      0.69172481	     68.14894231	     45.41625856	      0.00000000	      0.00000000	    -10.26399892	    -11.06224883	     -8.37525746	     58.95969951	     46.52338736	      0.00000000	      0.00000000
     46.84142857	     -7.16475824	     -3.85977044	     -1.57482821	      1.03189123	      0.92485781	      0.47542885	      5.26138489	     -3.33320956	    -15.09763084	     29.06213719	     29.06213719	     14.57031003	      5.31212010	     -9.72270142	     25.82762121	     -4.60433102	     -2.52379746	     24.79299027	     24.79299027	      9.48549231	    -12.70781315	      6.58241358	    -10.71755349	      7.94326089	      3.87609066	      4.14644050	    -19.47874783	      0.43123597	     66.85861823	     45.46228254	      0.00000000	      0.00000000	     -9.88673285	    -11.05411006	     -8.27419235	     59.59243677	     46.53186760	      0.00000000	      0.00000000
     46.85357143	     -7.12777895	     -3.94494110	     -1.58735579	      1.03200449	      0.92528242	      0.47320699	      6.51379231	     -3.65920705	    -13.98274603	     31.93013756	     31.93013756	     11.96968278	      2.31919070	    -14.46098057	     25.22764819	     -4.52041897	     -2.50797796	     24.76071300	     24.76071300	      9.88030153	    -12.75124362	      6.29206462	    -10.74788039	      7.96553288	      3.83489530	      3.52731945	    -18.99221203	     -1.58084717	     63.27484873	     45.64349444	      0.00000000	      0.00000000	    -10.12249946	    -11.63299339	     -6.84939912	     61.77949561	     46.48043831	      0.00000000	      0.00000000
     46.86571429	     -7.16835381	     -3.86721794	     -1.58938275	      1.03190077	      0.92544086	      0.47079996	      8.26518319	     -4.41941035	    -13.31461606	     35.67442551	     35.67442551	     10.39753836	      0.63579330	    -15.59986960	     24.71971590	     -4.26081461	     -2.54994916	     24.71219313	     24.71219313	     10.30269733	    -12.67824339	      6.07491346	    -10.72824297	      7.90099087	      3.83244406	      2.21981211	    -19.42026043	     -1.81152167	     61.88843842	     45.69013767	      0.00000000	      0.00000000	     -9.68125903	    -11.62707957	     -6.77514609	     62.59437832	     46.49727758	      0.00000000	      0.00000000
     46.87785714	     -7.10621561	     -3.93480294	     -1.57369104	      1.03169003	      0.92570926	      0.46873103	      9.93124342	     -4.75456373	    -12.22530301	     39.12853402	     39.12853402	      7.31391909	     -2.81980885	    -19.35590208	     24.14083573	     -4.16450135	     -2.50128042	     24.71633714	     24.71633714	     10.71715460	    -12.68031672	      5.74356624	    -10.83561177	      7.91004207	      3.63366824	      1.85132923	    -19.09025746	     -3.42920603	     58.38030830	     45.85091179	      0.00000000	      0.00000000	     -9.85863287	    -12.23856899	     -5.51325578	     65.06249518	     46.47793044	      0.00000000	      0.00000000
     46.89000000	     -7.06604175	     -3.95983466	     -1.60264655	      1.03126623	      0.92582479	      0.46672247	     11.92994984	     -5.19465247	    -11.24208799	     43.10713324	     43.10713324	      5.02912453	     -5.33903407	    -19.81278140	     23.62928327	     -4.03390292	     -2.45489426	     24.78084180	     24.78084180	     11.12806999	    -12.79203793	      5.54098354	    -10.92026690	      7.93065476	      3.76249686	      0.70718244	    -19.36545558	     -3.80167658	     56.57886563	     45.91240605	      0.00000000	      0.00000000	     -9.36129396	    -12.32949615	     -5.31552095	     66.40535805	     46.50581454	      0.00000000	      0.00000000
     46.90214286	     -7.00380669	     -3.92284890	     -1.62543391	      1.03075795	      0.92593193	      0.46487723	     14.00307455	     -5.65802431	    -10.33220764	     47.06276050	     47.06276050	      2.45389668	     -7.80065108	    -20.10998588	     23.06733923	     -3.87083198	     -2.51302789	     24.78181279	     24.78181279	     11.54613437	    -12.73242833	      5.27734589	    -11.02498394	      7.83858648	      3.53150686	      0.26605405	    -19.11666017	     -4.84689286	     53.66630838	     46.02472216	      0.00000000	      0.00000000	     -9.32106645	    -12.85189698	     -4.47173993	     68.58163490	     46.53011749	      0.00000000	      0.00000000
     46.91428571	     -6.95715825	     -3.82877900	     -1.69366402	      1.03012858	      0.92598888	      0.46314955	     16.21199329	     -6.13980303	     -9.43931958	     51.02039311	     51.02039311	      0.06693912	     -9.77066795	    -19.34787222	     22.50147316	     -3.65765234	     -2.59348322	     24.74069776	     24.74069776	     11.96820753	    -12.73157191	      5.10981798	    -11.12420069	      7.71904271	      3.52699813	     -0.84594869	    -19.35006518	     -4.94231930	     52.46599527	     46.06015939	      0.00000000	      0.00000000	     -8.67309455	    -12.92430934	     -4.48220869	     69.65265237	     46.56068037	      0.00000000	      0.00000000
     46.92642857	     -6.89124862	     -3.93815753	     -1.72636093	      1.02943636	      0.92614642	      0.46169488	     18.38879811	     -6.17817135	     -8.50293777	     54.71669813	     54.71669813	     -2.17886903	    -12.00677372	    -17.46902260	     21.96141737	     -3.67060226	     -2.58190518	     24.76864406	     24.76864406	     12.40012236	    -12.71383389	      4.90961988	    -11.25018579	      7.83532525	      3.67273655	     -1.75190148	    -19.50222319	     -5.30703474	     50.38489807	     46.13530864	      0.00000000	      0.00000000	     -8.20005218	    -13.15722395	     -4.01973630	     71.76883923	     46.58191906	      0.00000000	      0.00000000
     46.93857143	     -6.77642318	     -3.86619231	     -1.80289031	      1.02871293	      0.92634811	      0.46039381	     20.66433471	     -6.47289248	     -7.71045952	     58.52232042	     58.52232042	     -2.92567549	    -12.39630504	    -12.36534921	     21.30914311	     -3.53483548	     -2.75500727	     24.69651556	     24.69651556	     12.81458449	    -12.55996109	      4.67332295	    -11.41241052	      7.66835482	      3.25450720	     -1.52610624	    -18.97453473	     -6.53640271	     46.68820231	     46.26240089	      0.00000000	      0.00000000	     -8.19432928	    -13.80676192	     -3.32175517	     74.32316614	     46.67545100	      0.00000000	      0.00000000
     46.95071429	     -6.69298459	     -3.79793547	     -1.91112181	      1.02797995	      0.92662528	      0.45923181	     22.76604877	     -6.66694373	     -7.00841608	     61.58325008	     61.58325008	     -4.84331497	    -13.66296973	    -11.39114941	     20.62951492	     -3.40327985	     -2.93251415	     24.50977723	     24.50977723	     13.21502885	    -12.45675129	      4.54773116	    -11.55006152	      7.58512937	      3.21377257	     -2.52706061	    -19.05690238	     -6.50561437	     45.84617285	     46.28041219	      0.00000000	      0.00000000	     -7.44512003	    -13.89232054	     -3.39535892	     75.41934395	     46.71157870	      0.00000000	      0.00000000
